<svg aria-hidden="true" style="position:absolute;width:0;height:0" xmlns="http://www.w3.org/2000/svg" overflow="hidden"><defs><symbol id="c" viewBox="0 0 32 32"><path d="M26.667 7.303l-1.97-1.97-7.808 7.808-7.808-7.808-1.97 1.97 7.808 7.808-7.808 7.808 1.97 1.97 7.808-7.808 7.808 7.808 1.97-1.97-7.808-7.808 7.808-7.808z"/></symbol><symbol id="f" viewBox="0 0 28 32"><path d="M24.666 12c-.492 0-.952.134-1.35.368A2.673 2.673 0 0020.666 10c-.65 0-1.248.236-1.714.628a2.67 2.67 0 00-3.633-.929l.013-.007V2.666a2.665 2.665 0 10-5.332 0V20.51c0 .334-.22.508-.316.566a.656.656 0 01-.652.028l.004.002-4.282-2.14a2.828 2.828 0 00-4.088 2.526V22c0 .184.078.36.212.488l7.696 7.18A8.604 8.604 0 0014.478 32h4.186a8.676 8.676 0 008.668-8.665v-8.669A2.67 2.67 0 0024.664 12zM26 23.334a7.34 7.34 0 01-7.334 7.332h-4.18c-1.862 0-3.64-.7-5.002-1.972L2 21.71v-.22a1.492 1.492 0 012.167-1.328l-.008-.004 4.28 2.14c.626.314 1.354.28 1.946-.086.574-.355.95-.982.95-1.695V2.666a1.336 1.336 0 012.666-.005v10.004a.667.667 0 001.334 0v-.666a1.336 1.336 0 012.666-.005v.674a.669.669 0 001.334-.002v-.012a1.336 1.336 0 012.666.006v2.004a.667.667 0 001.334 0 1.334 1.334 0 012.666-.002v8.671z"/></symbol></defs></svg>